<svg width="1197" height="1197" xmlns="http://www.w3.org/2000/svg" xmlns:xlink="http://www.w3.org/1999/xlink" xml:space="preserve" overflow="hidden"><g transform="translate(-1598 -621)"><rect x="1598" y="621" width="1197" height="1197" fill="#FFFFFF"/><path d="M2518.33 862.334 2518.33 1459.2 1941.27 1459.2 1897 1505 2567 1505 2567 812 2518.33 862.334Z" fill="#7F1084" fill-rule="evenodd"/><path d="M1836 1435 2493 755 2493 1435 1836 1435Z" fill="#FFFFFF" fill-rule="evenodd"/><path d="M2489.26 765.068 2489.26 1431.3 1845.16 1431.3ZM2497 746 1827 1439 2497 1439Z" fill="#F19DB5" fill-rule="evenodd"/><path d="M2342.23 1263 2256 1379.61 2325.62 1379.61 2325.62 1408 2342.33 1408 2342.33 1379.61 2360 1379.61 2360 1374.8 2342.16 1374.8ZM2325.62 1374.8 2265.45 1374.8 2325.62 1293.59Z" fill="#F19DB5" fill-rule="evenodd"/><path d="M2419.46 1313.42C2406.9 1313.41 2394.86 1318.45 2386.03 1327.41L2386.03 1327.41C2384.42 1292.44 2400.29 1264.25 2426.96 1267.55 2443.1 1270.52 2455.67 1283.28 2458.44 1299.49L2463.2 1298.74C2459.48 1277.1 2440.52 1261.47 2418.63 1262.01 2401.82 1262.77 2386.82 1272.81 2379.65 1288.08 2372.46 1302.76 2368.72 1322.46 2370.4 1359.97 2371.8 1392.71 2393.81 1411 2419.39 1411 2446.23 1411 2468 1389.17 2468 1362.24 2468 1335.32 2446.23 1313.49 2419.39 1313.49M2418.12 1406.32C2400.77 1406.32 2386.58 1388 2385.79 1364.51 2385.79 1363.79 2385.79 1363.14 2385.79 1362.42L2385.79 1362.42C2385.79 1338.17 2400.29 1318.47 2418.15 1318.47 2436.01 1318.47 2450.45 1338.17 2450.45 1362.42 2450.45 1386.66 2435.98 1406.32 2418.15 1406.32" fill="#F19DB5" fill-rule="evenodd"/><path d="M2457 1628.79 2456.15 1627.86C2447.2 1633.23 2439.17 1637.7 2431.61 1641.37L2431.61 1587.63 2454.92 1587.63 2454.92 1584.19 2446.81 1576.5 2439.03 1583.87 2431.61 1583.87 2431.61 1530 2420.29 1530 2420.29 1583.87 2395 1583.87 2395 1587.63 2420.29 1587.63 2420.29 1646.39C2413.68 1649 2406.83 1650.99 2399.85 1652.35L2399.13 1652.35 2402.39 1662 2403.04 1661.78C2421.33 1655.18 2442.42 1644.72 2456.87 1628.76" fill="#F19DB5" fill-rule="evenodd"/><path d="M2526.42 1655.37C2543.92 1635.27 2553.64 1611.12 2559.8 1583.49L2559.8 1580.48 2551.66 1572.72 2543.95 1580.16 2480.73 1580.16C2481.31 1569.23 2481.57 1557.53 2481.57 1545.22L2559.86 1545.22 2559.86 1541.73 2551.73 1534 2544.02 1541.37 2466.67 1541.37 2466.67 1544.6C2466.67 1544.6 2466.67 1545.09 2466.67 1546.02 2466.67 1548.71 2467.02 1555.27 2467.02 1564.25 2467.02 1568.97 2467.02 1574.31 2466.76 1580.16L2466.6 1580.16 2466.6 1584 2466.6 1584C2466 1603.03 2463.94 1621.98 2460.44 1640.7 2456.62 1660.09 2450.49 1677.8 2441 1689.18L2441.97 1689.96C2454.54 1676.93 2463.99 1661.24 2469.65 1644.06 2475.8 1624.6 2479.36 1604.42 2480.24 1584.04L2543.47 1584.04C2540.85 1606.56 2532.78 1628.12 2519.94 1646.84 2510.6 1633.01 2503.95 1617.55 2500.33 1601.26L2500.14 1600.55 2487.99 1604.95 2487.99 1605.47C2492.54 1623.93 2501.09 1641.17 2513.04 1655.99 2501.4 1670.28 2487.48 1682.58 2471.85 1692.38L2472.47 1693.42C2489.82 1686.21 2505.71 1675.9 2519.36 1663 2534.89 1678.44 2554.26 1689.48 2575.48 1695L2576 1693.9C2555.58 1682.39 2539.06 1670.31 2526.42 1655.37" fill="#F19DB5" fill-rule="evenodd"/><path d="M2240.9 1573.23 2240.9 1570.28 2232.75 1562.55 2224.98 1569.96 2217.12 1569.96 2217.12 1535.47 2223.64 1529 2205.6 1529 2205.6 1569.83 2180.81 1569.83 2180.81 1573.68 2204.36 1573.68C2202.57 1597.84 2190.24 1632.23 2175 1656.89L2176.01 1657.63C2188.87 1645.18 2199.21 1626.09 2205.83 1611.43L2205.83 1696 2217.22 1696 2217.22 1573.81 2241 1573.81Z" fill="#F19DB5" fill-rule="evenodd"/><path d="M2239 1610.99C2239 1611.52 2239 1611.89 2239 1612.39 2239.01 1613.54 2238.74 1614.68 2238.22 1615.71 2237.67 1616.65 2236.83 1617.38 2235.83 1617.77 2235.4 1617.92 2234.94 1618 2234.49 1618 2232.95 1617.94 2231.53 1617.13 2230.69 1615.81 2230.02 1614.51 2229.53 1613.12 2229.25 1611.69 2228.87 1609.71 2228.39 1607.76 2227.81 1605.84 2225.79 1599.56 2222.45 1593.79 2218 1588.96L2218.78 1588C2227.34 1591.62 2234.2 1598.42 2237.99 1607 2238.44 1608.27 2238.78 1609.57 2239 1610.89" fill="#F19DB5" fill-rule="evenodd"/><path d="M2255.32 1574.72 2255.32 1559.37 2281 1559.37 2281 1555.54 2255.32 1555.54 2255.32 1539.77 2262 1536 2254.71 1536 2244 1536 2244 1598 2255.32 1598 2255.32 1578.46 2281 1578.46 2281 1574.72 2255.32 1574.72Z" fill="#F19DB5" fill-rule="evenodd"/><path d="M2255 1594 2281 1594 2281 1598 2255 1598Z" fill="#F19DB5" fill-rule="evenodd"/><path d="M2232 1634 2352 1634 2352 1638 2232 1638Z" fill="#F19DB5" fill-rule="evenodd"/><path d="M2255 1536 2281 1536 2281 1539 2255 1539Z" fill="#F19DB5" fill-rule="evenodd"/><path d="M2280 1536 2290 1536 2290 1598 2280 1598Z" fill="#F19DB5" fill-rule="evenodd"/><path d="M2290 1536 2283.32 1530 2277 1536" fill="#F19DB5" fill-rule="evenodd"/><path d="M2244 1535.91 2254 1536 2244 1530 2244 1535.91Z" fill="#F19DB5" fill-rule="evenodd"/><path d="M2343.82 1626 2336 1634 2352 1634 2343.82 1626Z" fill="#F19DB5" fill-rule="evenodd"/><path d="M2239.07 1618.91 2239.72 1620C2249.72 1616.05 2258.7 1609.9 2266 1602L2252.86 1602C2249.88 1608.81 2245.08 1614.66 2239 1618.91" fill="#F19DB5" fill-rule="evenodd"/><path d="M2311.33 1636.1C2309.15 1650.52 2290.26 1683.49 2233 1691.44L2233 1693C2270.02 1690.59 2312.16 1679.23 2326 1636Z" fill="#F19DB5" fill-rule="evenodd"/><path d="M2258.93 1667 2247 1667 2274.2 1621 2288 1621 2258.93 1667Z" fill="#F19DB5" fill-rule="evenodd"/><path d="M2259 1666.84C2281.68 1666.84 2316.3 1668.79 2349.51 1694L2352 1692.41C2338.59 1678.62 2298.58 1656.52 2264.54 1656" fill="#F19DB5" fill-rule="evenodd"/><path d="M2311.36 1574.72 2311.36 1559.37 2337 1559.37 2337 1555.54 2311.36 1555.54 2311.36 1539.77 2318 1536 2310.71 1536 2300 1536 2300 1598 2311.36 1598 2311.36 1578.46 2337 1578.46 2337 1574.72 2311.36 1574.72Z" fill="#F19DB5" fill-rule="evenodd"/><path d="M2312 1594 2337 1594 2337 1598 2312 1598Z" fill="#F19DB5" fill-rule="evenodd"/><path d="M2312 1536 2337 1536 2337 1539 2312 1539Z" fill="#F19DB5" fill-rule="evenodd"/><path d="M2336 1536 2346 1536 2346 1598 2336 1598Z" fill="#F19DB5" fill-rule="evenodd"/><path d="M2346 1536 2339.86 1530 2334 1536" fill="#F19DB5" fill-rule="evenodd"/><path d="M2300 1535.91 2311 1536 2300 1530 2300 1535.91Z" fill="#F19DB5" fill-rule="evenodd"/><path d="M2294.93 1618.91 2294.31 1620C2284.3 1616.06 2275.3 1609.91 2268 1602L2281.15 1602C2284.13 1608.81 2288.92 1614.66 2295 1618.91" fill="#F19DB5" fill-rule="evenodd"/><path d="M2296.06 1618.91 2296.7 1620C2306.32 1616.05 2314.97 1609.9 2322 1602L2309.35 1602C2306.48 1608.81 2301.86 1614.66 2296 1618.91" fill="#F19DB5" fill-rule="evenodd"/><path d="M2350.94 1618.91 2350.33 1620C2340.7 1616.05 2332.04 1609.9 2325 1602L2337.67 1602C2340.54 1608.8 2345.15 1614.65 2351 1618.91" fill="#F19DB5" fill-rule="evenodd"/></g></svg>